<svg viewBox="0 0 100 100" xmlns="http://www.w3.org/2000/svg" xmlns:xlink="http://www.w3.org/1999/xlink"><style>.cls-1{fill:#20cad9}.cls-1,.cls-2,.cls-3,.cls-4{fill-rule:evenodd}.cls-2{fill:#fcc12e}.cls-3{fill:#ff6b8b}.cls-4{fill:#a4d907}</style><path class="cls-1" d="M32.19,60.54,15.54,43.9,8.87,50.57,25.51,67.22l6.68-6.68Zm3.29-16.65L28.8,50.57l6.68,6.69,6.68-6.69-6.68-6.68Zm-10,3.39,6.68-6.68-6.68-6.67-6.68,6.68,6.68,6.67ZM3.93,48.93,25.51,27.35,48.74,50.57,37.13,62.19,25.51,73.8,2.28,50.58l1.65-1.65Z"/><path class="cls-2" d="M67.92,40.7,84.57,57.35l6.68-6.68L74.6,34,67.92,40.7ZM74.59,54l-6.68,6.68,6.69,6.68,6.68-6.68L74.59,54Zm-10,3.39,6.68-6.68L64.63,44,58,50.67l6.67,6.67ZM64,38.06,74.6,27.44,97.83,50.67Q86.23,62.3,74.6,73.9L51.37,50.67,64,38.06Z"/><path class="cls-3" d="M40,32.76,56.69,16.11,50,9.43,33.36,26.08,40,32.76ZM53.3,26.08,60,32.76l6.69-6.68L60,19.4,53.3,26.08Zm3.38,10L50,29.37l-6.68,6.68L50,42.73l6.67-6.68ZM48.37,47.66,26.78,26.08Q38.41,14.47,50,2.85L73.24,26.08,50,49.31l-1.64-1.65Z"/><path class="cls-4" d="M60.07,68.48,43.42,85.13l6.68,6.68L66.75,75.16l-6.68-6.68ZM43.42,65.2l6.68,6.68,6.68-6.69L50.1,58.51,43.42,65.2Zm3.38,10-6.67-6.68-6.68,6.67,6.68,6.68,6.67-6.67Zm2.65,22.57L26.87,75.16Q38.49,63.57,50.1,51.93L73.33,75.16Q61.73,86.79,50.1,98.39l-.65-.65Z"/></svg>